<?xml version="1.0" encoding="UTF-8"?> <!-- Generator: Adobe Illustrator 23.0.4, SVG Export Plug-In . SVG Version: 6.00 Build 0) --> <svg xmlns="http://www.w3.org/2000/svg" xmlns:xlink="http://www.w3.org/1999/xlink" id="Layer_1" x="0px" y="0px" viewBox="0 0 3541.7 1208.5" style="enable-background:new 0 0 3541.7 1208.5;" xml:space="preserve"> <style type="text/css"> .st0{fill:#000000;} </style> <g> <path class="st0" d="M1706,459.5c-35.9,0-64.2,22-91.5,51c-13.4-31.9-37.1-51-78.8-51c-35.3,0-63.2,20.2-86.9,45.8h-2.3l-4.7-38.8 h-55v284.4h66.6V552.2c22-23.7,42.3-35.3,59.7-35.3c30.1,0,44,17.4,44,64.2v169.7h66.6V552.2c22-23.7,41.7-35.3,59.7-35.3 c29.6,0,43.5,17.4,43.5,64.2v169.7h67.2V572.4C1794,500.6,1766.2,459.5,1706,459.5L1706,459.5z"></path> <path class="st0" d="M1995.6,606c-7,25.4-14.5,53.9-21.4,79.9h-2.3c-8.7-26.6-16.8-55-24.9-79.9l-49.2-139.6H1830l111.7,280.9 l-5.2,17.9c-9.2,28.4-26.6,48.7-56.7,48.7c-7,0-15.1-2.3-20.2-4l-12.2,52.2c10.4,3.5,21.4,5.8,37.1,5.8c62,0,91.5-40,115.2-104.2 l103.1-297.1h-64.2L1995.6,606z"></path> <path class="st0" d="M2205.3,516.9h-2.3l-4.7-50.4h-55v284.4h66.6V577.1c17.4-42.8,44.6-58.5,67.2-58.5c12.2,0,19.7,1.7,29.6,4.7 l11.6-57.9c-8.7-4-17.9-5.8-32.4-5.8C2255.6,459.5,2225.5,479.8,2205.3,516.9L2205.3,516.9z"></path> <path class="st0" d="M2504.6,704.5c-27.2,0-40-16.2-40-49.8V519.2h72.4v-52.7h-72.3v-77.6h-55.5l-8.2,77.6l-44,2.9v49.8h40.5v135.6 c0,61.4,24.3,103.1,90.3,103.1c22.6,0,42.3-5.2,57.9-10.4l-11.6-49.2C2526,701.6,2514.4,704.5,2504.6,704.5L2504.6,704.5z"></path> <path class="st0" d="M2671.2,703.3c-7,0-14.5-5.8-14.5-22V341.9h-66.6v335.9c0,49.2,17.4,79.9,64.9,79.9c15.7,0,27.2-2.3,35.3-5.8 l-8.7-49.8C2676.4,703.3,2674.1,703.3,2671.2,703.3L2671.2,703.3z"></path> <path class="st0" d="M2845.3,459.5c-66.6,0-130.9,56.7-130.9,149.5c0,93.8,61.4,148.8,140.1,148.8c35.9,0,70.1-12.7,97.3-30.7 l-22.6-41.7c-20.9,13.4-41.7,20.9-66,20.9c-45.8,0-78.2-28.9-84-80.5h180.7c1.7-7,2.9-18.5,2.9-31.3 C2962.8,515.2,2922.3,459.5,2845.3,459.5L2845.3,459.5z M2778.7,583.4c5.8-47.5,34.8-72.4,68.4-72.4c38.8,0,57.9,27.2,57.9,72.4 H2778.7z"></path> <path class="st0" d="M3066.4,667.4c-24.3,0-43.5,19.1-43.5,45.2s19.1,45.2,43.5,45.2s42.8-19.1,42.8-45.2 S3090.8,667.4,3066.4,667.4z"></path> <path class="st0" d="M3297.3,459.5c-45.2,0-85.1,17.4-116.4,37.1l24.3,44.6c24.9-15.1,51.5-27.8,79.9-27.8 c38.3,0,51,25.4,51.5,55.5c-116.4,12.7-167.4,44.6-167.4,105.4c0,49.8,34.8,83.4,84.6,83.4c33.6,0,62.5-16.8,88.1-38.3h1.7 l5.2,31.3h54.5V582.2C3403.3,503,3368.6,459.5,3297.3,459.5L3297.3,459.5z M3336.8,674.4c-20.9,19.7-38.8,31.3-62,31.3 c-23.7,0-40.5-11-40.5-36.5c0-28.4,25.4-48.7,102.5-58.5V674.4z"></path> <path class="st0" d="M3467,466.5h66.6v284.4H3467V466.5z"></path> <path class="st0" d="M3500.6,340.8c-23.7,0-41.1,15.7-41.1,38.3c0,22,17.4,37.6,41.1,37.6c23.7,0,41.1-15.7,41.1-37.6 C3541.7,356.4,3524.4,340.8,3500.6,340.8L3500.6,340.8z"></path> <path class="st0" d="M931.1,472c-7.8,4.6-10.7,15.5-11.5,23.9c7.7,3.4,18.7,6.3,26.5,1.7c7.8-4.6,13-17.5,17.5-27.4 C952.7,469.2,938.9,467.4,931.1,472L931.1,472z"></path> <path class="st0" d="M801.7,192c5.5-6.3,11.7-15.9,9.8-24.8c-2-8.8-12.6-17.8-20.8-25.1c-4.3,10-10.2,22.6-8.3,31.4 C784.3,182.5,794,188.6,801.7,192L801.7,192z"></path> <path class="st0" d="M962.6,700.5c1,8.4,3.9,19.3,11.8,23.8c7.8,4.5,21.6,2.6,32.5,1.4c-4.6-9.9-10-22.7-17.8-27.2 C981.3,694,970.3,697,962.6,700.5z"></path> <path class="st0" d="M910.7,701c5.8-7,4.8-18.3,2.7-26.4c-8.4-0.5-19.8,0.4-25.5,7.4c-5.8,7-6.4,20.9-7.2,31.7 C891.3,711,904.9,708,910.7,701z"></path> <path class="st0" d="M766.6,732.8c-7.5-5.1-18.6-3-26.6-0.3c0.2,8.4,2.3,19.6,9.7,24.8c7.5,5.1,21.3,4.5,32.3,4.2 C778.3,751.1,774.1,737.9,766.6,732.8L766.6,732.8z"></path> <path class="st0" d="M944.8,755.4c-6.2,5.8-13.3,14.6-12.2,23.6c1.1,9,10.8,19,18,27.1c5.3-9.5,12.5-21.4,11.4-30.4 C961.1,766.6,952.1,759.5,944.8,755.4L944.8,755.4z"></path> <path class="st0" d="M805.7,738.9c-6.2,5.8-13.3,14.6-12.2,23.6s10.8,19,18,27.1c5.3-9.5,12.5-21.4,11.4-30.4 C822,750.1,813.1,743.1,805.7,738.9L805.7,738.9z"></path> <path class="st0" d="M943.8,652.1c6.3,5.5,15.9,11.7,24.7,9.9c8.8-2,17.8-12.5,25.2-20.7c-10-4.3-22.6-10.3-31.4-8.5 C953.3,634.9,947.1,644.5,943.8,652.1L943.8,652.1z"></path> <path class="st0" d="M1007.7,517.9c-8.8,2-15,11.5-18.5,19.1c6.3,5.5,15.9,11.7,24.7,9.9c8.8-2,17.8-12.5,25.2-20.7 C1029.1,521.9,1016.5,515.9,1007.7,517.9L1007.7,517.9z"></path> <path class="st0" d="M986.7,433.6c-10.1-4-22.9-9.5-31.7-7.3c-8.8,2.3-14.6,12.1-17.7,19.9c6.5,5.3,16.3,11.2,25,8.9 C971.1,452.9,979.6,442,986.7,433.6z"></path> <path class="st0" d="M702.7,327.1c7.9-2.8,17.9-8.3,20.4-17c2.5-8.7-2.5-21.6-6.2-32c-8.6,6.7-19.8,14.9-22.4,23.6 C692,310.5,697.6,320.5,702.7,327.1z"></path> <path class="st0" d="M588.6,225.9c1.1,9,10.1,16,17.4,20.1c6.2-5.8,13.2-14.7,12.1-23.7s-10.9-18.9-18.3-27 C594.5,204.9,587.4,216.9,588.6,225.9L588.6,225.9z"></path> <path class="st0" d="M406.1,446.1c3.2,8.5,13.5,13.3,21.5,15.5c4.7-7.1,9.5-17.3,6.3-25.9c-3.2-8.5-14.9-16-23.9-22 C407.1,424.4,403,437.6,406.1,446.1z"></path> <path class="st0" d="M378.1,787c-6.5,5.3-14.1,13.8-13.6,22.8s9.6,19.6,16.5,28c5.9-9.2,13.7-20.7,13.2-29.8 C393.6,799.2,385.1,791.7,378.1,787L378.1,787z"></path> <path class="st0" d="M291.9,824.7c8.6,2.8,18.7-2.4,25.5-7.3c-2.6-8-7.7-18.2-16.3-21s-21.7,1.7-32.2,5.1 C275.5,810.4,283.3,821.9,291.9,824.7z"></path> <path class="st0" d="M1019.1,622c-7.9,4.2-11.2,15.2-12.4,23.5c7.6,3.6,18.5,7,26.4,2.7c7.9-4.2,13.7-17,18.5-26.7 C1040.8,619.9,1027,617.8,1019.1,622z"></path> <path class="st0" d="M1033.5,685.3c-7.9-4.2-18.9-1-26.4,2.6c1.2,8.4,4.5,19.2,12.4,23.5s21.7,2.1,32.5,0.7 C1047.2,702.3,1041.5,689.6,1033.5,685.3z"></path> <path class="st0" d="M1071.7,626.5c-7.9,4.2-11.2,15.2-12.4,23.5c7.6,3.6,18.5,7,26.4,2.7c7.9-4.2,13.7-17,18.5-26.7 C1093.5,624.4,1079.8,622.2,1071.7,626.5z"></path> <path class="st0" d="M830.5,618.4c-7.8,4.5-10.9,15.4-11.7,23.8c7.7,3.5,18.7,6.4,26.5,2c7.8-4.5,13.3-17.3,17.7-27.3 C852.1,615.8,838.3,614,830.5,618.4L830.5,618.4z"></path> <path class="st0" d="M881.2,599.1c-5.4,7.3-3.8,18.5-1.4,26.5c8.4,0.1,19.7-1.4,25.1-8.7c5.4-7.3,5.3-21.2,5.5-32.1 C900.1,588.1,886.6,591.8,881.2,599.1L881.2,599.1z"></path> <path class="st0" d="M952.5,604.8c6.6-6.1,9-19.9,11.2-30.5c-10.9,1.3-24.7,2.6-31.3,8.7c-6.6,6.2-7.1,17.5-6.1,25.9 C934.4,610.5,945.7,610.9,952.5,604.8L952.5,604.8z"></path> <path class="st0" d="M852.8,453.4c4,8.2,14.8,11.7,23,13.3c3.9-7.5,7.6-18.3,3.6-26.3c-4-8.2-16.4-14.3-26.1-19.5 C851.5,431.7,848.8,445.3,852.8,453.4z"></path> <path class="st0" d="M760.6,430.8c4.5,7.1,12,15.8,21,16.3c9,0.7,20.7-7.1,29.9-12.8c-8.4-7-18.8-16.2-27.8-16.8 C774.6,416.9,766,424.4,760.6,430.8z"></path> <path class="st0" d="M844.6,413.2c-6.3-8.9-14-20.5-22.5-23.5c-8.6-2.9-18.8,2.1-25.7,6.8c2.5,8,7.5,18.3,16,21.2 C821,420.7,834.2,416.3,844.6,413.2z"></path> <path class="st0" d="M729.7,508.6c-8.6,3-13.5,13.3-15.9,21.3c7,4.8,17.2,9.7,25.8,6.7c8.6-3,16.2-14.7,22.4-23.6 C751.5,509.9,738.2,505.7,729.7,508.6z"></path> <path class="st0" d="M355.8,730.3c8.3-3.7,12.3-14.3,14-22.6c-7.3-4.1-17.9-8.2-26.2-4.5c-8.3,3.7-14.9,16-20.3,25.4 C333.9,730.8,347.5,734,355.8,730.3L355.8,730.3z"></path> <path class="st0" d="M308.4,715.9c-8-2.3-19.3-3.8-26.5,1.7c-7.2,5.5-10.8,19-13.8,29.5c10.9-0.3,24.8-0.4,32-6 C307.2,735.7,308.6,724.4,308.4,715.9L308.4,715.9z"></path> <path class="st0" d="M264.7,768.6c-0.5-9-9.1-16.5-16.2-21.1c-6.4,5.4-14,13.9-13.5,22.9c0.5,9,9.7,19.6,16.6,27.9 C257.5,789.3,265.3,777.7,264.7,768.6L264.7,768.6z"></path> <path class="st0" d="M389.8,655.9c-4.2-7.3-11.3-16.2-20.3-17.2c-9-1-20.9,6.2-30.4,11.6c8,7.3,18.2,17,27.2,17.9 C375.4,669.2,384.2,662.1,389.8,655.9z"></path> <path class="st0" d="M331.2,640.3c-8-2.5-19.2-4.2-26.5,1.1s-11.2,18.7-14.6,29.1c10.9-0.1,24.8,0.2,32.1-5.2 C329.6,659.9,331.2,648.6,331.2,640.3z"></path> <path class="st0" d="M258.4,688.2c8.3,3.7,18.9-0.3,26.2-4.5c-1.7-8.3-5.8-18.9-14-22.6c-8.3-3.7-21.8-0.5-32.5,1.6 C243.5,672.2,250.1,684.5,258.4,688.2L258.4,688.2z"></path> <path class="st0" d="M227.2,681.8c-8.9-1.7-21.4,4.3-31.3,8.9c7.4,7.9,16.6,18.5,25.5,20.2c8.9,1.7,18.4-4.6,24.6-10.3 C242.4,693,236.1,683.5,227.2,681.8L227.2,681.8z"></path> <path class="st0" d="M195,720.8c-8.6,2.7-16.5,14.2-23,23c10.3,3.4,23.5,8,32.1,5.3c8.6-2.8,13.8-12.9,16.4-20.9 C213.8,723.3,203.7,718.1,195,720.8z"></path> <path class="st0" d="M187.8,667.3c-8-2.6-19.2-4.5-26.5,0.9c-7.3,5.3-11.3,18.7-14.7,29c10.9,0,24.8,0.3,32.2-5 C186,686.9,187.7,675.7,187.8,667.3z"></path> <path class="st0" d="M214.1,628c8.8,2.2,18.5-3.8,24.9-9.2c-3.3-7.8-9.1-17.5-17.9-19.7c-8.8-2.2-21.5,3.5-31.6,7.6 C196.5,615,205.3,625.8,214.1,628z"></path> <path class="st0" d="M180.2,613.2c-7.7-4.8-21.5-3.5-32.4-2.8c4.1,10.1,8.9,23.2,16.6,27.9c7.7,4.8,18.8,2.3,26.5-0.9 C190.5,629.1,188,618,180.2,613.2L180.2,613.2z"></path> <path class="st0" d="M374.7,603c8.2,3.9,18.9,0,26.3-3.9c-1.6-8.3-5.3-19-13.6-22.8c-8.2-3.9-21.8-1-32.5,1 C360.1,586.7,366.6,599.1,374.7,603L374.7,603z"></path> <path class="st0" d="M341.4,602.3c4.1-7.3,8.2-17.9,4.5-26.2s-16-14.8-25.5-20.2c-2.2,10.7-5.3,24.2-1.5,32.5 C322.5,596.7,333.2,600.6,341.4,602.3L341.4,602.3z"></path> <path class="st0" d="M296.3,599.8c6-5.9,12.9-14.9,11.6-23.9c-1.3-8.9-11.2-18.7-18.8-26.6c-5.1,9.7-12,21.7-10.7,30.8 S288.8,595.9,296.3,599.8L296.3,599.8z"></path> <path class="st0" d="M253,588.9c7.1-4.6,15.7-12,16.3-21c0.5-9-7.2-20.7-12.9-29.9c-7,8.4-16.1,18.9-16.7,27.9 C238.9,574.9,246.4,583.4,253,588.9z"></path> <path class="st0" d="M291.2,496.6c-4.2-7.3-11.4-16.1-20.4-17.1c-9-1-20.9,6.3-30.3,11.7c8.2,7.3,18.3,16.8,27.3,17.8 C276.8,509.9,285.6,502.8,291.2,496.6L291.2,496.6z"></path> <path class="st0" d="M432.1,554.1c2.2-8.2,3.4-19.5-2.4-26.5c-5.8-7.1-19.2-10.3-29.8-13.2c0.7,10.9,1,24.8,6.7,31.9 S423.7,554.5,432.1,554.1z"></path> <path class="st0" d="M380.7,521c3.8-7.5,7.3-18.4,3.2-26.4c-4.1-8-16.7-14-26.4-18.9c-1.6,10.8-4.1,24.5,0,32.5 C361.4,516.3,372.3,519.7,380.7,521z"></path> <path class="st0" d="M506.7,554.4c3.6-7.6,6.8-18.5,2.5-26.5c-4.3-7.9-17.1-13.6-26.9-18.4c-1.4,10.8-3.6,24.6,0.8,32.5 C487.4,550.2,498.4,553.3,506.7,554.4z"></path> <path class="st0" d="M586.5,524.2c6-6.8,6.8-20.8,7.8-31.5c-10.7,2.5-24.2,5.2-30.2,12.1c-6,6.8-5.1,18.2-3.3,26.4 C569.1,531.8,580.5,531,586.5,524.2L586.5,524.2z"></path> <path class="st0" d="M631.9,511.2c2.1-8.2,3-19.5-2.7-26.4c-5.8-7-19.3-10-29.9-12.7c0.8,10.9,1.3,24.8,7.2,31.7 C612.2,510.8,623.5,511.8,631.9,511.2z"></path> <path class="st0" d="M577.2,485.3c7.2-5.5,10.5-19,13.6-29.6c-10.9,0.4-24.8,0.5-32,6.2c-7.2,5.5-8.5,16.8-8.2,25.3 C558.8,489.5,570.2,490.9,577.2,485.3z"></path> <path class="st0" d="M626.4,442.5c-2-8.8-12.5-17.8-20.7-25.1c-4.3,10-10.3,22.6-8.4,31.4c2,8.8,11.5,15,19.2,18.4 C622.1,460.9,628.3,451.4,626.4,442.5L626.4,442.5z"></path> <path class="st0" d="M637.1,391.7c-4.1-8-16.6-14.1-26.3-19.1c-1.7,10.8-4.3,24.5-0.2,32.5c4.1,8,14.9,11.6,23.2,13 C637.7,410.5,641.2,399.7,637.1,391.7L637.1,391.7z"></path> <path class="st0" d="M657.4,464.2c0.9,9,9.7,16.2,17,20.4c6.3-5.7,13.5-14.3,12.6-23.4s-10.4-19.1-17.6-27.3 C664,443.4,656.6,455.1,657.4,464.2L657.4,464.2z"></path> <path class="st0" d="M706.4,418.8c-1.5-8.9-11.8-18.4-19.7-26c-4.8,9.8-11.2,22.2-9.7,31.1c1.5,8.9,10.9,15.4,18.5,19.1 C701.4,437,707.9,427.8,706.4,418.8z"></path> <path class="st0" d="M723,413c5.9-6.1,12.4-15.3,10.9-24.2c-1.5-8.9-11.8-18.4-19.7-26c-4.8,9.8-11.2,22.2-9.7,31.1 C706.1,402.8,715.4,409.3,723,413z"></path> <path class="st0" d="M752.3,347.4c-6.2-6.6-17.6-6.8-26-5.8c-1.5,8.3-1.8,19.7,4.3,26.2c6.2,6.5,20,8.8,30.7,10.8 C760,367.9,758.5,354.1,752.3,347.4z"></path> <path class="st0" d="M834.1,205.5c-5.2,7.4-3.2,18.6-0.4,26.6c8.4-0.2,19.6-2.2,24.8-9.7c5.2-7.4,4.6-21.3,4.3-32.3 C852.5,193.7,839.2,198,834.1,205.5L834.1,205.5z"></path> <path class="st0" d="M780.9,215.3c-8.8-2.1-21.5,3.7-31.5,7.9c7.2,8.3,16,19,24.8,21.1c8.8,2.1,18.5-4,24.9-9.5 C795.7,227.1,789.7,217.4,780.9,215.3L780.9,215.3z"></path> <path class="st0" d="M849.3,240.6c-8.4,3.5-12.6,14.1-14.6,22.3c7.2,4.3,17.7,8.6,26.1,5.1c8.4-3.5,15.2-15.7,20.9-25 C871,240.6,857.6,237.1,849.3,240.6z"></path> <path class="st0" d="M813.8,265.1c-4.6-7.1-12.2-15.5-21.2-16.1s-20.5,7.3-29.7,13.3c8.5,6.8,19,16,28,16.4 C800,279.3,808.4,271.7,813.8,265.1L813.8,265.1z"></path> <path class="st0" d="M861.4,311.4c8.3-3.8,14.7-16.2,20-25.7c-10.7-2.1-24.3-5.1-32.5-1.3c-8.3,3.8-12.1,14.6-13.7,22.8 C842.5,311.3,853.2,315.2,861.4,311.4L861.4,311.4z"></path> <path class="st0" d="M891.6,325c-8-4.1-21.7-1.7-32.5-0.1c4.9,9.8,10.8,22.4,18.8,26.5s18.9,0.8,26.4-3 C903.1,340,899.6,329.2,891.6,325L891.6,325z"></path> <path class="st0" d="M881.8,394.4c8,4.1,18.9,0.8,26.4-3c-1.3-8.4-4.7-19.1-12.7-23.4c-8-4.1-21.7-1.7-32.5-0.1 C867.9,377.6,873.8,390.2,881.8,394.4L881.8,394.4z"></path> <path class="st0" d="M834.7,342.1c-8.5,3.2-13.3,13.5-15.7,21.5c7,4.7,17.3,9.5,25.8,6.4c8.5-3.2,16-14.9,22.1-23.9 C856.6,343.2,843.3,339,834.7,342.1L834.7,342.1z"></path> <path class="st0" d="M775.5,315.4c8.6,2.8,21.7-1.7,32.2-5c-6.4-8.8-14.1-20.3-22.8-23.3c-8.6-2.8-18.8,2.3-25.7,7.2 C761.8,302.3,766.9,312.4,775.5,315.4z"></path> <path class="st0" d="M665.3,337.7c1.5-8.3,1.8-19.7-4.3-26.2c-6.2-6.6-20-8.8-30.7-10.9c1.4,10.8,2.8,24.7,9.1,31.2 C645.5,338.5,656.9,338.8,665.3,337.7z"></path> <path class="st0" d="M559.5,293c6.2,6.6,17.6,6.8,26,5.9c1.5-8.3,1.8-19.7-4.3-26.2c-6.2-6.6-20-8.8-30.7-10.9 C551.8,272.5,553.2,286.3,559.5,293z"></path> <path class="st0" d="M633.7,264.6c-4.7,7.8-1.8,18.8,1.4,26.5c8.4-0.8,19.5-3.5,24-11.3c4.7-7.7,3-21.6,2.1-32.5 C651.4,251.7,638.4,256.8,633.7,264.6z"></path> <path class="st0" d="M572.3,170.8c-5,7.6-2.6,18.7,0.4,26.6c8.4-0.4,19.6-2.7,24.5-10.3c5-7.6,3.9-21.4,3.4-32.4 C590.4,158.6,577.3,163.2,572.3,170.8z"></path> <path class="st0" d="M543.8,226.5c-9,0.7-19.5,9.9-27.8,16.8c9.2,5.8,20.9,13.4,29.9,12.7c9-0.7,16.4-9.2,21-16.4 C561.5,233.3,552.9,225.9,543.8,226.5z"></path> <path class="st0" d="M538.4,188.9c-8.4-3.5-21.8,0.1-32.4,2.6c5.7,9.3,12.6,21.4,21,24.9c8.4,3.5,18.9-0.9,26.1-5.2 C551,203,546.8,192.4,538.4,188.9z"></path> <path class="st0" d="M504.9,143.2c2.3,10.7,4.9,24.3,11.6,30.4c6.7,6.1,18.2,5.4,26.3,3.7c0.9-8.4,0.2-19.8-6.5-25.8 C529.7,145.3,515.8,144.3,504.9,143.2L504.9,143.2z"></path> <path class="st0" d="M475,308c-9-1.2-21,5.9-30.7,11.1c7.9,7.5,17.8,17.3,26.9,18.5c9,1.2,17.9-5.9,23.8-12 C490.9,318.2,484,309.2,475,308z"></path> <path class="st0" d="M480.8,242.7c1.7-8.3,2.3-19.6-3.7-26.3c-6.1-6.7-19.8-9.2-30.4-11.5c1.2,10.9,2.3,24.7,8.4,31.4 C461,243,472.4,243.6,480.8,242.7L480.8,242.7z"></path> <path class="st0" d="M452.8,271.9c-9-1.2-21,5.9-30.7,11.1c7.9,7.5,17.8,17.3,26.9,18.5c9,1.2,17.9-5.9,23.8-12 C468.6,282.1,461.7,273.1,452.8,271.9z"></path> <path class="st0" d="M483.6,351.9c-7.8-4.5-21.6-2.7-32.5-1.5c4.5,9.9,9.9,22.8,17.7,27.3c7.8,4.5,18.8,1.5,26.5-2 C494.4,367.3,491.5,356.3,483.6,351.9L483.6,351.9z"></path> <path class="st0" d="M528.8,403.4c8.4,1,19.7,0.5,25.9-6.1s7.4-20.5,8.7-31.3c-10.7,2.2-24.5,4.6-30.5,11.2 C526.7,383.8,527.2,395.1,528.8,403.4z"></path> <path class="st0" d="M389.2,380.2c-9-1.2-21,5.9-30.7,11.1c7.9,7.5,17.8,17.3,26.9,18.5c9,1.2,17.9-5.9,23.8-12 C405,390.4,398.2,381.3,389.2,380.2L389.2,380.2z"></path> <path class="st0" d="M344.8,331.5c6.2,6.6,17.6,6.8,26,5.9c1.5-8.3,1.8-19.7-4.3-26.2c-6.2-6.6-20-8.8-30.7-10.9 C337.2,311.1,338.6,324.9,344.8,331.5L344.8,331.5z"></path> <path class="st0" d="M232.2,452.4c8.3,3.8,18.9-0.2,26.2-4.2c-1.6-8.3-5.5-18.9-13.8-22.7c-8.3-3.8-21.8-0.8-32.5,1.4 C217.5,436.3,223.9,448.6,232.2,452.4L232.2,452.4z"></path> <path class="st0" d="M277.1,409.3c3.9-7.5,7.6-18.2,3.7-26.3c-4-8.2-16.4-14.3-26.1-19.5c-1.8,10.8-4.6,24.3-0.7,32.5 C258,404.2,268.7,407.8,277.1,409.3z"></path> <path class="st0" d="M331.5,487.9c7.5-3.9,16.6-10.7,17.9-19.6c1.3-8.9-5.4-21.1-10.4-30.9c-7.6,7.8-17.6,17.5-19,26.4 C318.8,472.8,325.6,481.9,331.5,487.9L331.5,487.9z"></path> <path class="st0" d="M309.4,435.3c8.4,0.7,19.8-0.1,25.7-7c5.9-6.8,6.7-20.8,7.7-31.6c-10.7,2.5-24.2,5.3-30.2,12.2 C306.7,415.8,307.5,427.1,309.4,435.3L309.4,435.3z"></path> <path class="st0" d="M431.4,343.4c3.4-8.4-0.3-21.8-2.9-32.4c-9.2,5.8-21.2,12.9-24.6,21.3s1.1,18.8,5.5,26 C417.5,356.2,428,351.9,431.4,343.4z"></path> <path class="st0" d="M745.2,628.9c-0.9,9,6.3,17.8,12.6,23.4c7.3-4.2,16.1-11.4,17-20.4s-6.4-20.9-11.8-30.3 C755.6,609.7,746,619.8,745.2,628.9L745.2,628.9z"></path> <path class="st0" d="M832.2,559.3c-4.6,7.8-1.5,18.8,1.8,26.5c8.4-1,19.3-3.9,23.9-11.7c4.5-7.8,2.7-21.6,1.5-32.5 C849.5,546,836.7,551.3,832.2,559.3L832.2,559.3z"></path> <path class="st0" d="M820.9,702c2.9,7.9,8.5,17.8,17.2,20.3s21.6-2.7,31.9-6.4c-6.7-8.6-15.1-19.7-23.8-22.2 C837.5,691.1,827.6,696.8,820.9,702L820.9,702z"></path> <path class="st0" d="M490.5,489.1c1.8-8.9-4.2-21.4-8.7-31.3c-8,7.4-18.6,16.5-20.4,25.3c-1.8,8.9,4.5,18.4,10.1,24.6 C479.1,504.2,488.6,498,490.5,489.1z"></path> <path class="st0" d="M166,540.3c-7.9-2.9-19-5.2-26.6-0.1c-7.5,5-12.1,18.2-15.9,28.4c10.9,0.4,24.8,1.3,32.3-3.7 C163.4,559.8,165.6,548.7,166,540.3z"></path> <path class="st0" d="M175.6,514.8c4,8.2,14.8,11.7,23.2,13.2c3.9-7.5,7.5-18.3,3.5-26.4s-16.5-14.2-26.2-19.3 C174.3,493.1,171.5,506.7,175.6,514.8z"></path> <path class="st0" d="M152.2,518.1c-1.6-8.3-5.5-18.9-13.8-22.7c-8.3-3.8-21.8-0.8-32.5,1.3c5.3,9.5,11.8,21.8,20,25.7 C134.1,526.1,144.8,522.1,152.2,518.1L152.2,518.1z"></path> <path class="st0" d="M170.8,569.3c-7.5,5-12.1,18.2-15.9,28.4c10.9,0.4,24.8,1.3,32.3-3.7c7.5-5,9.8-16.2,10.1-24.6 C189.5,566.6,178.3,564.3,170.8,569.3z"></path> <path class="st0" d="M158.3,352.9c5.3,9.5,11.8,21.8,20,25.7c8.3,3.8,18.9-0.2,26.2-4.2c-1.6-8.3-5.5-18.9-13.8-22.7 C182.6,347.6,169,350.8,158.3,352.9L158.3,352.9z"></path> <path class="st0" d="M200.2,389.2c-9-0.5-20.5,7.4-29.7,13.3c8.5,6.8,19,15.9,28,16.4c9,0.5,17.5-7.2,22.8-13.7 C216.9,398.1,209.3,389.6,200.2,389.2z"></path> <path class="st0" d="M246.5,353.5c0.2-9-7.9-20.3-14.1-29.4c-6.6,8.7-15.3,19.6-15.5,28.6c-0.2,9,7.6,17.3,14.3,22.4 C238.1,370.4,246.3,362.5,246.5,353.5L246.5,353.5z"></path> <path class="st0" d="M410.9,270.3c9,1,17.9-6.1,23.6-12.3c-4.1-7.3-11.2-16.2-20.2-17.3c-9-1-21,6.1-30.4,11.5 C391.9,259.7,401.9,269.3,410.9,270.3L410.9,270.3z"></path> <path class="st0" d="M339.2,355.4c-9,0-20.1,8.6-28.9,15c8.8,6.3,19.9,14.8,29,14.8c9,0,17.1-8.2,22-14.9 C356.3,363.4,348.3,355.4,339.2,355.4L339.2,355.4z"></path> <path class="st0" d="M341,289c8.6,2.9,18.8-2.2,25.7-7c-2.5-8-7.5-18.3-16.1-21.2c-8.6-2.9-21.7,1.5-32.2,4.8 C324.7,274.6,332.4,286.1,341,289z"></path> <path class="st0" d="M430.1,212.4c3-7.8,5.7-18.9,0.8-26.6c-4.8-7.6-17.9-12.5-28-16.5c-0.7,10.9-2,24.8,2.9,32.4 C410.6,209.4,421.8,211.9,430.1,212.4L430.1,212.4z"></path> <path class="st0" d="M284.6,278.7c2.3,10.7,4.8,24.3,11.5,30.4c6.7,6.1,18,5.4,26.3,3.8c0.9-8.4,0.3-19.8-6.4-25.8 C309.4,281.1,295.5,279.9,284.6,278.7L284.6,278.7z"></path> <path class="st0" d="M679.4,222.5c5-7.6,3.9-21.4,3.4-32.4c-10.2,3.9-23.3,8.5-28.3,16.1c-5,7.6-2.6,18.7,0.4,26.6 C663.3,232.4,674.5,230.1,679.4,222.5z"></path> <path class="st0" d="M722.6,261.5c5-7.6,3.9-21.4,3.4-32.4c-10.2,3.9-23.3,8.5-28.3,16.1s-2.6,18.7,0.4,26.6 C706.5,271.4,717.7,269.2,722.6,261.5z"></path> <path class="st0" d="M628.6,339.5c-9,0.3-16.7,8.7-21.4,15.7c5.2,6.6,13.6,14.3,22.6,14s19.8-9.2,28.4-16 C649.1,347.1,637.8,339.2,628.6,339.5L628.6,339.5z"></path> <path class="st0" d="M464,392.4c0,10.9-0.4,24.8,4.8,32.2c5.3,7.4,16.5,9.1,24.9,9.2c2.6-8,4.5-19.2-0.8-26.6 C487.6,399.9,474.3,395.9,464,392.4L464,392.4z"></path> <path class="st0" d="M771.9,172.4c0.5-5.9,0.2-13.8-4.6-18c-4.7-4.2-14.5-5-22.1-5.8c1.6,7.5,3.4,17.1,8.2,21.3 S766.1,173.6,771.9,172.4z"></path> <path class="st0" d="M203.2,436.6c-6-2-15.2,1.2-22.5,3.5c4.5,6.2,9.9,14.2,16,16.3c6,2,13.2-1.6,17.9-5 C212.7,445.7,209.3,438.5,203.2,436.6L203.2,436.6z"></path> <path class="st0" d="M225.5,561.3c3.8-4.5,8-11.3,6.5-17.4c-1.5-6.2-9-12.3-14.8-17.3c-2.9,7.1-6.8,16-5.4,22.1 C213.2,554.9,220,559.1,225.5,561.3L225.5,561.3z"></path> <path class="st0" d="M881.7,547.8c-5.2,3.6-6.7,11.4-6.8,17.3c5.5,2,13.4,3.5,18.6-0.1c5.2-3.6,8.3-12.8,10.9-20 C896.6,544.7,886.9,544.2,881.7,547.8z"></path> <path class="st0" d="M947.1,552.7c-7.6-0.2-17.4-0.8-22.6,2.8c-5.2,3.6-6.7,11.4-6.8,17.3c5.5,2,13.4,3.5,18.6-0.1 C941.6,569.1,944.6,559.8,947.1,552.7z"></path> <path class="st0" d="M979.8,397.4c-6.3,0.2-11.7,6.1-15,11c3.7,4.6,9.5,10,15.9,9.8c6.3-0.2,13.8-6.4,19.8-11.2 C994,402.9,986.1,397.2,979.8,397.4L979.8,397.4z"></path> <path class="st0" d="M1024.2,490.4c-6.1,1.6-10.2,8.5-12.4,13.9c4.6,3.7,11.4,7.8,17.5,6.2c6.1-1.6,12.2-9.2,17.1-15.1 C1039.3,492.6,1030.3,488.8,1024.2,490.4L1024.2,490.4z"></path> <path class="st0" d="M933.4,292.5c0.9-6.3-4-14.8-7.6-21.4c-5.2,5.5-12.2,12.4-13,18.7s4,12.6,8.3,16.6 C926.3,303.6,932.6,298.8,933.4,292.5z"></path> <path class="st0" d="M623.3,199c5.2-2.8,11.5-7.6,12.4-13.9s-4-14.8-7.6-21.4c-5.2,5.5-12.2,12.4-13,18.7 C614.2,188.6,619,194.9,623.3,199z"></path> <path class="st0" d="M413,303c0.9-6.3-4-14.8-7.6-21.4c-5.2,5.5-12.2,12.4-13,18.7c-0.9,6.3,4,12.6,8.3,16.6 C405.8,314,412.1,309.3,413,303z"></path> <path class="st0" d="M205.2,344.3c5.4-6.4,11.5-16.1,9.5-24.9c-2.1-8.8-12.8-17.6-21.1-24.8c-4.2,10.1-9.9,22.7-7.8,31.5 C187.8,335,197.5,341,205.2,344.3L205.2,344.3z"></path> <path class="st0" d="M388.5,211.1c-7.8-4.6-21.6-2.7-32.5-1.6c4.5,10,9.8,22.8,17.6,27.4c7.8,4.6,18.8,1.6,26.5-1.8 C399.3,226.6,396.4,215.7,388.5,211.1z"></path> <path class="st0" d="M998.8,324.4c-6.3,0.9-11.1,7.3-13.8,12.5c4.1,4.2,10.4,9,16.7,8.2c6.3-0.9,13.2-7.8,18.6-13.2 C1013.6,328.3,1005,323.5,998.8,324.4z"></path> <path class="st0" d="M143.7,483.3c3.3,5.4,11,7.4,16.8,8c2.3-5.4,4.3-13.2,1.1-18.6c-3.3-5.4-12.3-9.1-19.2-12.2 C141.6,468.2,140.6,477.9,143.7,483.3L143.7,483.3z"></path> <path class="st0" d="M354.2,247.1c1-5.8,1.2-13.8-3.3-18.4c-4.3-4.6-14-6-21.5-7.4c1.1,7.5,2.2,17.3,6.5,21.8 C340.4,247.7,348.3,248,354.2,247.1L354.2,247.1z"></path> <path class="st0" d="M909.4,266.2c1.3-6.2-2.8-15-5.9-22c-5.7,5.1-13.2,11.4-14.5,17.6c-1.3,6.2,2.9,12.8,6.8,17.3 C901.4,276.8,908.1,272.4,909.4,266.2z"></path> <path class="st0" d="M1200.1,59h-50.5V10.9c0-6-4.9-10.9-10.9-10.9H10.9C4.9,0,0,4.9,0,10.9v1127.7c0,6,4.9,10.9,10.9,10.9h50.5 v48.2c0,6,4.9,10.9,10.9,10.9H1200c6,0,10.9-4.9,10.9-10.9V69.9C1211,63.9,1206.1,59,1200.1,59z M61.4,69.9v1057.9H21.7V21.7h1106 V59H72.3C66.3,59,61.4,63.9,61.4,69.9L61.4,69.9z M1127.8,80.8v1047H83.2V80.8L1127.8,80.8z M1189.2,1186.8H83.2v-37.3h1055.4 c6,0,10.9-4.9,10.9-10.9V80.8h39.7v1106.1H1189.2z"></path> <path class="st0" d="M287.1,864.7c23.9-6.6,34.4-18.9,48.6-38.8c16.8-23.4,32.5-48.8,45.9-74.7c4.6,23.5,19.7,44.1,34,62.6 c7.5,9.7,15.2,19,22.9,28.5c3.7,4.7,5.3,6.1,8.8,10.9c1.5,2.1,3,4.1,4.5,6.3c0.7,1,5.1,7.3,6.2,6.6c1.6-1-3.5-7.9-4.1-9.1 c-2.7-5-2.6-4.2-5.9-8.9c-7.4-10.9-15.3-21.3-22.9-32.1c-14-19.7-30.2-42.1-33.6-66.6c-1.8-13.2,2.3-23.7,12.2-32.5 c9.8-8.7,22-7.7,33.7-4.1c-10.9,7.6-21.1,18.7-19.5,32.8c1.6,14.5,10.7,27.7,17.6,40c8.7-9.7,18.5-19.3,24.1-31.3 c5.9-12.5,2.2-24.7-6-35.2c20.9,10.3,35.4,31.1,48.7,49.5c7.5,10.4,14.9,20.5,20.2,32.4c13.2,29.4,26.4,62.6,28.9,95 c4.3,57-4.1,114.2-13.2,170.4c-2.1,13.2-10.4,58.4-43.7,61.1h177.6h48.4c-47-4.2-56.4-71.1-67.6-129.4 c-8.9-46.5-12.3-70.9-14.3-127.3c-2.8-76.1,38.8-115.3,52.1-127c-4.2,13.5-5.1,28.8,6.2,39c10,9,23.7,13.8,35.9,18.9 c1.1-14.1,3.7-30.4-1.6-44c-5.1-13.2-19.7-18.2-32.5-20.1c12.6-8.8,27.9-16.6,42.7-21.1c14.6-4.3,33.9-0.2,48.4,3.6 c29.9,7.9,55.9,25.9,60.8,58.3c2.4,15.7,0,31.9-4,47c-1.8,7.1-3.2,8.5-5.8,15.3c-0.4,1.1-3.8,7.6-3.2,8.5c2.2,2.8,4.1-3.7,4.7-4.9 c12.8-27.2,21.7-54.6,11.5-84.1c-11.5-33.4-46.4-49.7-78.9-55.9c25.8-9.8,52.2-18.3,77.3-29.7c19.5-8.8,43.2-28.2,64.5-12.8 c21.5,15.5,13.6,50.3,8.5,72c-3.3,13.9-7.6,27.7-13.3,41c-1.2,2.8-2.5,5.7-3.8,8.4c-0.9,1.7-4.6,6.6-4.2,8.2 c1.1,4.9,4.5-2.5,5.5-4.5c14.6-25.5,24.9-55.7,27.7-85c3.4,11,7.1,22.1,13.3,31.9c6.3,9.9,15.4,17.5,24.5,24.8 c18.3,14.7,38.4,26.4,51.7,46.2c3.4,5.1,6.4,10.4,9.2,15.9c0.4,0.8,3.6,8.7,4.8,4.6c0.9-2.8-5.2-12-6.6-14.7 c-2.7-5.3-5.9-10.4-9.3-15.3c-13.7-19-34.2-31.3-51.3-47.1c-9.8-9-17-18.2-21.6-30.8c-5-13.4-7.3-27.6-12.3-40.9 c23.5,13.4,50.8,1.8,73.5-7.1c11.6-4.6,23.3-7.1,35.7-5.1c2,0.3,12.5,4.1,13.8,2.9c3-2.9-10-5.3-11.8-5.8 c-27.7-6.2-50.5,11-77.4,13.4c-11.8,1.1-23.2-0.7-32.8-7.9c-9.6-7.3-16.4-17.9-28.4-21.5c23.7-12,47.7-23.4,72.9-31.4 c6.2-2,12.5-3.8,18.8-5.4c2.8-0.8,11.7-2.5,5-3.9c-5.3-1.2-14.5,1.7-19.7,2.7c-7.1,1.2-14,2.7-20.9,4.5 c-25.8,6.5-50.4,16.5-74.9,26.7c-12.5,5.2-25.1,9.6-37.7,14.5c-11.4,4.3-22.3,9.8-33.9,13.6c-16,5.2-32.1,9.6-48.3,14.1 c7.6-9.1,13.9-19,19.2-29.6c2.4-4.9,4-10.9,6.8-15.4c3.2-5.2,9-9.8,13.5-13.7c18.3-15.5,39.9-26.5,61.9-36.1 c3.2-1.4,29.8-11.1,29.1-13.4c-0.8-2.3-27.4,8.2-30.8,9.3c-23.7,8.7-47.3,19.1-67.2,34.8c2.9-9.6,5.4-19.1,7.7-28.8 c0.8-3.2,1.5-6.4,2.3-9.6c1.7-7.4-0.1-8.2-3.6-1.3c-9.1,17.9-17.2,36.4-27.2,53.8c-13.2,22.8-30.4,42-52.6,56.3 c-20.7,13.4-43.2,23.7-63.8,37.1c19.9-38.5,43.3-75.9,68.3-111.3c10.8-15.3,21.5-30.3,35.9-42.5c8.6-7.3,17.9-14,27.5-20.1 c17.8-11.4,37.6-17.9,58.5-20.8c20.7-2.8,42.3-5.2,62.6,0.3c15.7,4.2,28.3,13.3,40.8,23c17.3,13.6,36.7,29.6,59.8,30.4 c11.2,0.4,20.9-3.8,31.1-7.7c5.5-2.1,11.2-3.8,17.1-3.8c-0.5,0,10.3-0.5,5.7-2.1c-13.7-4.5-26.3,1.4-39.7,3.5 c-12.3,1.8-23.6-2-33.9-8.5c-18.5-11.7-32.1-29.6-50.1-42.1c18.7-2.3,39.5-8.3,49.1-26c1.2-2.2,8.8-21.8,4.7-22.3 c-0.5-0.1-6.6,19-8.3,21.5c-10,15.1-29.4,19.3-46.4,20.5c-5.3,0.4-8.4,0.3-13.2-2c-4.5-2.2-9.1-3.9-13.8-5.4 c-9-2.8-18.5-4.3-27.9-4.9c14.8-17.1,22.2-39.9,27.3-61.5c2.7-11.3,11.8-20,19.5-28.7c8-9.1,16.4-17.8,24.9-26.4 c8.6-8.8,17.3-17.5,25.8-26.3c2.2-2.2,7.3-7.9,1.3-5c-4.8,2.3-9.9,9.5-13.9,13.2c-18.3,17-36.7,33.7-53.2,52.5 c4.8-25.5,9.6-52,1-77.4c12.5,4.2,27.5,5.9,37.4-4.6c8.8-9.3,13.2-22.6,17.8-34.2c-12.7-0.8-27-2.7-39.2,1.5 c-12.4,4.2-17.4,17.1-19.2,29c-7.5-16.5-19.1-30.9-30.2-45.1c-1.3-1.7-5.4-9-6.6-4.5c-0.7,2.7,7.6,13.7,9.2,16.5 c2.8,5.1,5.7,10.1,8.4,15.3c11,21.4,15.5,42.5,11.4,66.4c-3,17.8-8.2,35.7-13.6,52.8c-4.5-8.6-11-16.2-17.9-22.9 c-3.7-3.6-7.6-7-11.6-10.2c-3.5-2.8-8.5-8.4-12.7-9.8c-6.1-2.1-1,2.9,1.1,5.2c3.9,4.2,7.8,8.5,11.6,12.8c6.6,7.7,12.9,16,17.3,25.2 c2,4.3,3.6,8.9,4.2,13.6c0.9,5.9-0.4,9.5-2.9,14.7c-3.9,8.2-7.9,16.6-16.1,21.1c-17.7,9.8-38.5,14.2-57.5,20.8 c10.9-5.8,21.8-14.9,22.2-28.2c0.3-13.8-7-27.5-12.3-39.9c-10.2,9-23.2,18.8-28.4,31.9c-5.4,13.7,3.4,28.2,12.1,38.4 c-11.8,2.7-21.4,7.8-31.5,14.1c-10.2,6.3-20.2,12.2-29.6,19.8c-9.1,7.4-17.3,16-26.1,23.9c-9,8.2-17.5,16.8-25.5,25.9 c-15.9,17.8-29.7,37.4-43.3,57c-14.7,21.2-28.7,42.8-40,66c1.3-18,3.8-36.2,9.5-53.4c7.3-22.1,23.7-39.4,37.2-57.9 c13-17.9,25.2-36.3,31.7-57.6c6.8-22.3,7.1-46.2,15.5-67.9c9.6,9.8,22.7,18.7,37,14.2c13.5-4.2,24.5-15.3,34.9-24.3 c-18.8-11.3-41.9-27.6-62-9.8c14-23.4,32.9-40.9,52.6-59.2c18.6-17.4,37.9-38.3,46.5-62.7c9.2-26.5,7.6-56.6,4.2-84 c-3.6-28.7-7.5-56.2,4.5-83.6c0.8-1.8,3.8-5.8,2.7-7.4c-1.4-2.2-3.4,2.7-3.8,3.5c-3.4,6.5-6.1,13.3-8.2,20.2 c-4.1,14.5-4.6,29.6-3.5,44.5c-7.3-14.9-20-28.7-34.7-36.4c-8.3-4.3-17.3-7-25.9-10.7c-3.7-1.6-7.3-3.5-10.5-5.8 c-1.1-0.8-6.5-6.3-7.3-3.9c-1.3,4.2,15,12,17.7,13.3c8.7,4.1,17.9,7.2,26.1,12.4c13.5,8.5,26.1,24.2,31,39.5 c9.3,29.1,6.6,65-3.3,93.5c-12.6,36.1-46.5,53-73.2,77.6c-15.3,14.1-28.6,30.5-37.9,49.2c-9.5,18.9-14.3,39.4-17.9,60 c-7-13.3-17.1-24.5-24.6-37.3c-7.7-13.3-9.8-26.5-7.5-41.5c4.7-29.9,22-56,43-77c21-20.8,53.9-37.3,63-67.1 c2.1-6.8,3-14.1,3.4-21.3c0.1-1.8,1.1-17.5-2.1-14c-1,1-0.4,7.1-0.5,8.5c-0.2,3.6-0.5,7.1-1.1,10.7c-1,7.1-2.7,14-5.9,20.4 c-7.1,14.8-21.1,24.3-33.8,33.9c-13.8,10.5-27.6,21.3-39.6,33.9c6.7-18.9,7.7-39.4,8.6-59.2c0.9-20.7,0.4-41.4,0.2-62.1 c0-1.8,1.1-13.6-0.1-14.8c-2.5-2.5-2.3,0.2-2.6,2.9c-1.1,10.7-0.8,21.6-1.1,32.4c-0.8,21-1.8,42.1-4.6,62.9 c-2.6,20.2-8.6,37.7-17.8,55.9c-8.7,17.2-18.8,34.1-24.1,52.7c-5.3,18.6-2.2,36.5,7.3,53.3c9,16.1,22,30.9,19.8,50.5 c-4.3,41.1-49.6,59-65.2,94.5c-5.3-16.8-11.6-33.4-18.2-49.8c13.6,1.1,29.7-0.7,37.5-13.4c7.5-12.2,8.4-28,10.2-41.9 c-12.4,2.4-25.7,4.1-37.1,10c-12.3,6.4-16.4,18.4-16.1,31.7c-6.8-16.6-13.9-33.2-20.7-49.8c-3.3-8-6.8-16-9.5-24.2 c-2.4-7.8-0.3-17.2,2-24.9c5-16.6,15.2-31.4,23.7-46.4c8.6-15,15-30.9,22.4-46.4c7.8-16.2,14.5-32.9,17.4-50.8 c2.7-16.5,7.4-32.7,11.5-48.9c4.6-17.7,9.3-35.5,15.1-52.9c2.7-8.3,5.7-16.4,8.8-24.5c1.6-4,3.3-8,5-12.1c0.2-0.4,5-9.8,1.5-8.3 c-2.3,1-4.6,8.3-5.7,10.7c-2,4.2-3.9,8.5-5.8,12.7c-3.9,9-7.4,18-10.8,27.3c-7.2,20-13,40.3-19,60.7c-4.8-33.6-27.4-60.1-41.4-90 c-6.7-14.3-11.2-29.8-9.9-45.8c0.1-1,2.2-9.8,1.3-10.3c-2.3-1.4-2.4,1.2-2.9,3c-2.4,8.5-2.2,18-1.1,26.6 c4.5,33,26.6,59.8,38.7,90.1c6.1,15.3,8.6,31.4,7,47.9c-1.5,16.2-8.3,32.1-14.1,47.1c-13.6,34.7-44.8,59.7-57.2,94.6 c-5.1-18.2-9.3-37-10.8-55.8c-1.5-19-0.5-38-1.8-57.1c12.2,7.2,27.7,12.4,40.4,3.7c11.7-7.8,19.5-21.2,27.2-32.7 c-13.3-3.7-27.6-8.9-41.5-7.5c-13.9,1.4-22.3,12.7-27.3,24.9c-2.6-20.5-1.4-41.3-4.8-61.9c-3.6-21.7-10.9-42.7-22-61.9 c-1.4-2.5-5.2-11.5-8.3-12.3c-3.7-1,2,7.4,2.2,7.8c5.2,9.1,9.7,18.7,13.2,28.7c7.5,21.3,10.3,43.8,10.7,66.3 c-14-31.5-44.5-50.5-72.1-69c-3.9-2.6-7.9-5.3-11.8-8c-1.7-1.2-7.3-6.6-9.3-6.6c-2.8,0-1.6,1.1-0.4,2.8c2.5,3.6,9,7,12.5,9.6 c13.6,10.1,27.5,19.8,40.4,30.9c12.3,10.5,23.7,22.5,30.9,37.1c3.5,7,5.9,14.3,7.5,21.8c2,9.2,1.3,18,0.8,27.4 c-2.1,36.4-3.5,72.4,1.2,108.7c5.2,40.8,15.5,80.8,26.6,120.2c-15.4-7.7-33-10.3-47.7-19.9c-13.6-8.9-25.1-24.9-29.5-40.4 c-4.9-17.7-1.2-36,2.4-53.5c1.6-8.3,2.7-16.4,3-24.7c0.3-7.5,1.7-14.6-1-22c-5.1-13.8-19.8-25.2-31.5-33.2 c-14.6-9.9-27.4-21.5-34.8-37.8c-7.5-16.7-9.2-35.3-11.8-53.3c-1.2-8.7-2.6-17.4-4.9-25.9c-1.1-4.3-2.4-8.6-4-12.7 c-0.3-0.9-3.2-8.3-4.3-4.9c-0.9,2.4,3.6,11.7,4.2,14.5c1.1,4.6,2,9.2,2.7,13.9c1.5,10.4,2.3,20.9,3.4,31.4 c2.2,20.2,6.1,40.5,18.4,57.3c-14-7.3-28.2-14.6-42.3-21.8c-11.2-5.8-22.5-11.5-33.7-17.3c-3-1.5-7.2-4.9-10.5-5.4 c-2.2-0.3-3.4-0.3-1.7,2c1.6,2.3,7.3,4.2,9.7,5.5c5.3,3,10.7,6.1,16,9.1c8.6,4.9,17.1,9.8,25.7,14.7c14.8,8.5,29.7,16.7,44.4,25.2 c9.1,5.2,17.1,11.7,25.2,18.5c9.8,8,17.5,16.4,19.8,29.4c2.2,12.4-4.5,27.2-6.7,39.5c-2.4,13.5-4.7,27.2-4.2,41 c-9-14.2-18-29-31.2-39.9c-13-10.8-28.4-18-41.7-28.3c-3.5-2.6-6.7-5.4-9.8-8.5c-1.5-1.5-4.8-7.3-6.6-7.9 c-5.9-2.1,4.3,9.8,5.4,11.1c10.5,11.5,24,19.6,36.5,28.6c26.2,19.1,40.8,48.4,55,76.7c7.2,14.1,18.5,23.2,30.3,32.9 c13.2,11,26.6,21.8,39.4,33.4c13.5,12.3,22.3,26.6,27.3,44.1c3.7,12.7,6.1,25.7,10,38.3c-16.4-12.6-33.3-24.6-48.6-38.4 c-14-12.7-28.4-25.1-42.5-37.8c-16.6-14.9-31.4-31.7-48-46.6c-14.7-13.3-30.4-25-47.4-35.3c-15-9.1-28.7-19.7-41-32.3 c-6.8-7-13.4-13.6-17.1-22.7c-3.6-8.8-6.2-18-7.8-27.3c-3.9-22.1-2.8-44.8-8.2-66.5c-2.3-9.2-5.9-18.3-11.3-26.2 c-1.5-2.2-17.7-21.2-20.2-17.6c-0.4,0.7,15.3,16.4,17.3,19.6c6.2,9.9,9.1,21.2,10.8,32.6c3.5,24.6,1.1,49.6,7.1,73.8 c-13.8-17.5-27.1-35.4-42.4-51.7c-7-7.4-14.2-14.5-22-21c-4-3.4-8.2-6.6-12.5-9.8c-1.7-1.3-6.5-5.4-5.8-1 c0.4,2.3,10.7,8.5,12.6,10.3c3.7,3.3,7.3,6.7,10.9,10.3c7.4,7.5,14.2,15.3,20.8,23.6c14.1,17.7,26.7,36.5,40.3,54.7 c-18.3-14.8-43.8-15.3-66.1-13.6c-12.5,1-25.3,2.2-37.8,4.1c0.7-0.1-6.5,0.4-3.6,2.4c1.5,1.1,5.1,0,6.7-0.1 c6.3-0.5,12.6-1.2,18.9-1.7c23.3-2.1,49.8-4.3,70.9,7.8c9.3,5.4,15.8,14,22.2,22.4c7.2,9.2,14.8,16.1,23.7,23.5 c-28.3-8.6-61-6-90-2.9c0.5-0.1-6.4,0-3.8,2.3c1.6,1.4,7.8,0.4,9.9,0.4h21.2c15,0,30.3,0,45.2,3c28.6,6.3,52.5,23.7,74.6,41 c11,8.6,20.9,16.8,29.1,28.2c8.9,12.4,17.1,25.3,26.1,37.6c-32.2-14.7-66.2-19.6-101.4-20.1c-33.5-0.5-68-0.8-97.7-18.5 c-23.8-14.2-40.2-37.5-60.8-55.5c-5.2-4.7-10.8-8.9-16.7-12.7c-1.3-0.8-4.5-3.8-5.7-2.1c-1.4,2,5.3,5.1,6.6,6.1 c13,9.8,23.6,22.1,34.2,34.2c12.1,13.8,24.6,27.5,40.1,37.4c15.9,10,33.8,15.7,52.2,18.6c-38,5.5-78.6,16-113.2,33.3 c-2.2,1.1-5,2.1-1.6,3.4c2.2,0.9,11.1-4,13.4-4.9c9.3-3.3,18.8-6.3,28.4-9c19.3-5.5,39.1-10,59.1-12.8 c78.3-11.1,157.6,6.1,215.8,61.9c28.8,27.7,54.9,62.2,61,102.5c-21-31.5-47.8-58.3-78.9-79.9c-18.6-12.9-38.8-24.5-60.4-31.3 c-22.3-7.1-43.9-5.3-66.7-2.1c-41.6,6-91.7,14.9-117.3,52.2c-6.2,9-10.7,19.1-14.6,29.4c-0.2,0.7-4.8,11.3-1.3,9.6 c3-1.5,6-12.8,7.6-16.1c9.7-19.6,23-34.7,42.6-44.7c22-11.2,46-15.1,70.2-18.2c24.1-2.9,49.4-6.1,72.8,2 c-13.4,4.6-22.7,16.2-29.6,27.9c-8.7,15.1-15.2,31.5-22.9,47.2c-6.2-11.3-16-23.4-30-23.6c-14.3-0.2-28.6,8.3-41.1,14.3 c9.1,9.5,18.6,20.5,30.8,26.2c12.6,5.9,25.4,0.2,35.7-7.8c-22.4,43.4-35.7,73.3-68.5,82.5c0,0-2.4,0.9-2.2,1.8 C284,865.3,287.1,864.7,287.1,864.7L287.1,864.7z"></path> <path class="st0" d="M976.6,800.3c3.6,5.2,12.9,8.2,20.1,10.7c0.1-7.6,0.5-17.4-3-22.5c-3.6-5.2-11.5-6.5-17.4-6.7 C974.4,787.2,973,795.1,976.6,800.3L976.6,800.3z"></path> <path class="st0" d="M861,751.1c3.6,5.2,12.9,8.2,20.1,10.7c0.1-7.6,0.5-17.4-3-22.5c-3.6-5.2-11.5-6.5-17.4-6.7 C858.9,738.1,857.5,745.9,861,751.1L861,751.1z"></path> <path class="st0" d="M1005.4,757.9c6.3,0.5,14.5-4.8,21-8.7c-5.8-5-13-11.5-19.3-12c-6.3-0.5-12.4,4.7-16.2,9.1 C993.9,751.4,999,757.5,1005.4,757.9z"></path> <path class="st0" d="M751.4,790.9c3.6,5.2,12.9,8.2,20.1,10.7c0.1-7.6,0.5-17.4-3-22.5c-3.6-5.2-11.5-6.5-17.4-6.7 C749.1,777.9,747.7,785.7,751.4,790.9L751.4,790.9z"></path> </g> </svg> 
